<svg width="21" height="13" viewBox="0 0 21 13" fill="none" xmlns="http://www.w3.org/2000/svg">
<path fill-rule="evenodd" clip-rule="evenodd" d="M2 10C2.39782 10 2.77936 10.158 3.06066 10.4393C3.34196 10.7206 3.5 11.1022 3.5 11.5C3.5 11.8978 3.34196 12.2794 3.06066 12.5607C2.77936 12.842 2.39782 13 2 13C1.60218 13 1.22064 12.842 0.93934 12.5607C0.658035 12.2794 0.5 11.8978 0.5 11.5C0.5 11.1022 0.658035 10.7206 0.93934 10.4393C1.22064 10.158 1.60218 10 2 10ZM19.999 10.5C20.552 10.5 21 10.944 21 11.5C21 12.0525 20.555 12.5 19.999 12.5H6.001C5.86952 12.5004 5.73926 12.4748 5.6177 12.4247C5.49614 12.3746 5.38567 12.301 5.29266 12.208C5.19964 12.1151 5.1259 12.0047 5.07568 11.8832C5.02545 11.7617 4.99974 11.6315 5 11.5C5 10.9475 5.445 10.5 6.001 10.5H19.999ZM2 5C2.39782 5 2.77936 5.15804 3.06066 5.43934C3.34196 5.72064 3.5 6.10218 3.5 6.5C3.5 6.89782 3.34196 7.27936 3.06066 7.56066C2.77936 7.84196 2.39782 8 2 8C1.60218 8 1.22064 7.84196 0.93934 7.56066C0.658035 7.27936 0.5 6.89782 0.5 6.5C0.5 6.10218 0.658035 5.72064 0.93934 5.43934C1.22064 5.15804 1.60218 5 2 5ZM19.999 5.5C20.552 5.5 21 5.944 21 6.5C21 7.0525 20.555 7.5 19.999 7.5H6.001C5.86952 7.5004 5.73926 7.47481 5.6177 7.4247C5.49614 7.3746 5.38567 7.30097 5.29266 7.20805C5.19964 7.11513 5.1259 7.00474 5.07568 6.88323C5.02545 6.76172 4.99974 6.63148 5 6.5C5 5.9475 5.445 5.5 6.001 5.5H19.999ZM2 0C2.39782 0 2.77936 0.158035 3.06066 0.43934C3.34196 0.720644 3.5 1.10218 3.5 1.5C3.5 1.89782 3.34196 2.27936 3.06066 2.56066C2.77936 2.84196 2.39782 3 2 3C1.60218 3 1.22064 2.84196 0.93934 2.56066C0.658035 2.27936 0.5 1.89782 0.5 1.5C0.5 1.10218 0.658035 0.720644 0.93934 0.43934C1.22064 0.158035 1.60218 0 2 0ZM19.999 0.5C20.552 0.5 21 0.944 21 1.5C21 2.0525 20.555 2.5 19.999 2.5H6.001C5.86952 2.5004 5.73926 2.47481 5.6177 2.4247C5.49614 2.3746 5.38567 2.30097 5.29266 2.20805C5.19964 2.11513 5.1259 2.00474 5.07568 1.88323C5.02545 1.76172 4.99974 1.63148 5 1.5C5 0.9475 5.445 0.5 6.001 0.5H19.999Z" fill="white"/>
</svg>
