<svg width="18" height="18" viewBox="0 0 23 16" fill="none" xmlns="http://www.w3.org/2000/svg">
<path d="M22.6853 7.84604C22.6524 7.77198 21.8585 6.01077 20.0928 4.245C17.7412 1.8931 14.7698 0.649902 11.5 0.649902C8.23017 0.649902 5.25874 1.8931 2.90711 4.245C1.14142 6.01078 0.347573 7.77197 0.314613 7.84604C0.272012 7.94194 0.25 8.0457 0.25 8.15063C0.25 8.25557 0.272012 8.35933 0.314613 8.45523C0.347573 8.52939 1.14152 10.2901 2.9072 12.0556C5.25883 14.407 8.23017 15.6499 11.5 15.6499C14.7698 15.6499 17.7411 14.407 20.0928 12.0556C21.8584 10.2901 22.6524 8.52939 22.6853 8.45524C22.7279 8.35934 22.75 8.25557 22.75 8.15064C22.75 8.0457 22.7279 7.94194 22.6853 7.84604ZM11.5 4.77573C12.1675 4.77573 12.82 4.97367 13.375 5.34452C13.93 5.71537 14.3626 6.24247 14.6181 6.85917C14.8735 7.47587 14.9404 8.15447 14.8101 8.80916C14.6799 9.46384 14.3585 10.0652 13.8865 10.5372C13.4145 11.0092 12.8131 11.3307 12.1584 11.4609C11.5037 11.5911 10.8251 11.5243 10.2084 11.2688C9.59172 11.0134 9.06462 10.5808 8.69377 10.0258C8.32292 9.47076 8.12498 8.81824 8.12498 8.15073C8.12598 7.25593 8.48189 6.39807 9.1146 5.76535C9.74732 5.13264 10.6052 4.77673 11.5 4.77573Z" fill="#333333"/>
</svg>
