<svg width="37" height="37" viewBox="0 0 37 37" fill="none" xmlns="http://www.w3.org/2000/svg">
<path d="M13.875 20.0418C17.2807 20.0418 20.0416 17.2809 20.0416 13.8752C20.0416 10.4694 17.2807 7.7085 13.875 7.7085C10.4692 7.7085 7.70831 10.4694 7.70831 13.8752C7.70831 17.2809 10.4692 20.0418 13.875 20.0418Z" stroke="black" stroke-width="2" stroke-linecap="round" stroke-linejoin="round"/>
<path d="M24.6666 29.2918C24.6666 24.1827 19.8351 20.0418 13.875 20.0418C7.9149 20.0418 3.08331 24.1827 3.08331 29.2918M23.125 20.0418C24.1554 20.0418 25.1694 19.7835 26.0743 19.2906C26.9792 18.7978 27.7462 18.086 28.3051 17.2203C28.8641 16.3547 29.1972 15.3628 29.2741 14.3352C29.351 13.3077 29.1692 12.2772 28.7452 11.338C28.3213 10.3989 27.6687 9.58089 26.8472 8.95886C26.0257 8.33683 25.0615 7.93056 24.0425 7.77719C23.0236 7.62382 21.9824 7.72822 21.0142 8.08087C20.046 8.43351 19.1816 9.02315 18.5 9.79591" stroke="black" stroke-width="2" stroke-linecap="round" stroke-linejoin="round"/>
<path d="M33.9167 29.2917C33.9167 24.1826 29.0851 20.0417 23.125 20.0417C21.8809 20.0417 19.8829 19.5899 18.5 18.1377" stroke="black" stroke-width="2" stroke-linecap="round" stroke-linejoin="round"/>
</svg>
