<svg width="18" height="18" viewBox="0 0 19 20" fill="none" xmlns="http://www.w3.org/2000/svg">
<path d="M18.5 5.34015L14.3107 1.15079C14.1714 1.01149 14.0061 0.900998 13.8241 0.825612C13.6421 0.750226 13.447 0.711426 13.25 0.711426C13.053 0.711426 12.858 0.750226 12.676 0.825612C12.494 0.900998 12.3287 1.01149 12.1894 1.15079L9.71982 3.62033L9.71969 3.62047L9.71955 3.62061L0.939412 12.4007C0.799668 12.5397 0.688877 12.705 0.613452 12.8871C0.538028 13.0691 0.499468 13.2644 0.500006 13.4614V17.6508C0.50046 18.0485 0.658642 18.4297 0.939848 18.7109C1.22105 18.9922 1.60232 19.1503 2.00001 19.1508H6.18937C6.38643 19.1513 6.58164 19.1128 6.7637 19.0374C6.94576 18.9619 7.11105 18.8512 7.25001 18.7114L18.5001 7.46142C18.7809 7.17989 18.9387 6.79845 18.9386 6.40078C18.9386 6.0031 18.7809 5.62167 18.5 5.34015ZM15.5 8.34015L11.3107 4.15079L13.25 2.21143L17.4394 6.40079L15.5 8.34015Z" fill="#333333"/>
</svg>
