<svg width="62" height="62" viewBox="0 0 62 62" fill="none" xmlns="http://www.w3.org/2000/svg">
<path d="M3.06604 32.1481V60.1062H59.2826V32.0415C59.2826 32.0415 48.0354 24.2818 47.5171 24.2092C46.9989 24.1365 31.8912 10.3076 31.8912 10.3076L15.2384 23.7393L3.06604 32.1481Z" fill="#F8C778"/>
<path d="M3.06604 32.1188H16.3379L16.3234 60.077H18.5273L18.5418 26.0399L31.5618 14.5796L44.6981 26.5921L44.6642 60.077H46.7276L46.7615 31.959L59.2826 32.0462V30.3751L47.861 24.2526L32.5839 10.8306L15.7179 23.9765L3.07573 30.5204L3.06604 32.1188Z" fill="#F5B03F"/>
<path d="M6.34537 20.6196C6.25818 20.7601 2.88209 30.0698 2.81912 30.2635C2.75615 30.4573 2.91599 30.6849 3.30349 30.7188C3.69099 30.7527 17.0549 30.7188 17.0549 30.7188L17.0161 25.0129C17.0161 25.0129 31.3633 12.0994 31.5232 12.0994C31.683 12.0994 46.1416 25.3471 46.1755 25.5457C46.2094 25.7394 46.2385 30.496 46.2385 30.496C46.2385 30.496 58.9533 30.5929 59.2149 30.6268C59.4765 30.6607 59.5394 30.3023 59.3118 29.6241C59.0841 28.946 56.4297 20.7601 56.236 20.6293C56.0422 20.4985 45.5604 20.4985 45.5604 20.4985C45.5604 20.4985 32.429 8.40851 32.2013 8.21476C31.9736 8.02101 31.2955 7.72554 30.6949 8.32617C30.1669 8.85414 17.0694 20.5954 17.0694 20.5954C17.0694 20.5954 6.44224 20.4549 6.34537 20.6196Z" fill="#A62714"/>
<path d="M21.2689 39.0359L21.264 60.0965H41.7822V39.0359C41.7822 39.0359 21.2689 38.9826 21.2689 39.0359Z" fill="#CF6150"/>
<path d="M1.76315 60.1838C1.94237 60.455 4.03487 60.3291 9.61002 60.3581C15.1852 60.3872 16.8078 60.3775 17.0985 60.3194C17.3842 60.2613 17.6167 59.0067 17.4278 57.9169C17.2196 56.7205 16.5027 55.5919 15.3402 55.2286C13.7853 54.7442 12.8263 55.1899 12.0803 54.9283C11.3344 54.6716 9.14987 53.5769 6.93628 53.7222C5.03752 53.8433 3.68612 54.4003 2.50909 56.1344C1.24487 57.9992 1.6469 60.0094 1.76315 60.1838ZM61.0749 60.0675C61.3606 59.8689 61.3364 54.3664 57.5099 53.945C54.6375 53.6302 53.8867 54.8653 53.4024 54.8653C52.9131 54.8653 51.0531 53.9595 48.486 54.9525C45.2939 56.1877 45.3521 59.7817 45.4683 60.1256C45.5846 60.4695 48.888 60.3824 53.4266 60.4114C57.9652 60.4405 60.7019 60.3291 61.0749 60.0675Z" fill="#7DB240"/>
<path d="M5.60423 33.7271H14.6572V41.0169H5.48314C5.48314 41.0169 5.54126 33.7852 5.60423 33.7271ZM5.48314 44.4221H14.4974V51.4746H5.40564C5.40564 51.4794 5.44439 44.3833 5.48314 44.4221Z" fill="#3E737C"/>
<path d="M6.97495 35.0591H13.1265V39.8786H6.89745C6.89745 39.8786 6.85385 35.0978 6.97495 35.0591ZM6.69885 45.5991H13.204V50.2636H6.69885V45.5991Z" fill="#A7D0D7"/>
<path d="M48.2776 34.1581H57.2919V41.4092H48.2389C48.2389 41.4092 48.2776 34.0418 48.2776 34.1581Z" fill="#3E737C"/>
<path d="M49.5322 35.4126H55.9986V40.1159H49.5322V35.4126Z" fill="#A7D0D7"/>
<path d="M48.1615 44.853H57.1369V51.7118H48.1615C48.1615 51.7118 48.1033 44.916 48.1615 44.853Z" fill="#3E737C"/>
<path d="M49.571 46.1078V50.3412H55.7225V46.069C55.7225 46.069 49.5128 46.0496 49.571 46.1078Z" fill="#A7D0D7"/>
<path d="M24.2478 60.1059L24.2429 41.3315H39.0164V60.1059H24.2478Z" fill="#3E737C"/>
<path d="M37.2678 45.1632V42.6929H26.0691V45.1632H37.2678ZM26.0691 46.3983H37.2678V52.826H26.0691V46.3983ZM26.0691 54.1483H37.2678V57.5099H26.0691V54.1483Z" fill="#A7D0D7"/>
<path d="M31.1356 45.8461V58.4932H32.4144V45.7154C32.4144 45.7154 31.2228 45.8461 31.1356 45.8461ZM31.2228 19.4041C26.1998 19.4477 22.8334 23.1919 23.0901 28.0066C23.3372 32.6857 27.0523 35.621 31.3487 35.4999C35.8631 35.3739 39.0987 31.7508 39.2247 27.4544C39.3506 23.158 35.8631 19.3654 31.2228 19.4041Z" fill="#3E737C"/>
<path d="M31.0969 20.8525C27.0088 20.8525 24.2818 23.9622 24.4561 27.7064C24.6208 31.3199 27.0524 34.0518 31.2277 34.0518C35.0591 34.0518 37.5779 30.9033 37.6554 27.6629C37.7377 24.1269 35.0979 20.8525 31.0969 20.8525Z" fill="white"/>
<path d="M29.9053 27.832C29.9053 27.832 27.5319 29.8276 27.4011 30.0601C27.2703 30.2926 27.2752 30.6753 27.59 30.932C27.9097 31.1887 28.2245 31.0386 28.4183 30.8884C28.6072 30.7383 31.1114 28.6845 31.1114 28.6845C31.1114 28.6845 31.9203 28.67 32.1092 27.7109C32.2594 26.9456 31.7072 26.5872 31.7072 26.5872C31.7072 26.5872 31.62 22.005 31.5813 21.6659C31.5474 21.4141 31.2858 21.1767 31.0533 21.2009C30.8208 21.2203 30.5883 21.3511 30.5641 21.7289C30.5399 22.1067 30.5156 26.4951 30.5156 26.4951C30.5156 26.4951 30.1766 26.6211 29.9877 26.9844C29.7988 27.3428 29.9053 27.832 29.9053 27.832Z" fill="#2F2F2F"/>
</svg>
