<svg width="16" height="21" viewBox="0 0 16 21" fill="none" xmlns="http://www.w3.org/2000/svg">
<path d="M13.3999 0.75C14.0669 0.75 14.7359 0.859 15.2029 1.343C15.6629 1.821 15.7499 2.483 15.7499 3.1V14.9C15.7499 15.443 15.6779 15.977 15.3999 16.409C15.2395 16.6582 15.015 16.8596 14.7499 16.992V17.9C14.7499 18.566 14.6419 19.235 14.1589 19.702C13.6809 20.164 13.0189 20.25 12.4019 20.25H1.7499C1.35208 20.25 0.970549 20.092 0.689245 19.8107C0.40794 19.5294 0.249905 19.1478 0.249905 18.75V4.517C0.246905 4.019 0.243905 3.397 0.379905 2.83C0.546905 2.138 0.931905 1.467 1.7509 1.05C2.0889 0.878 2.4449 0.81 2.8249 0.78C3.1899 0.75 3.6349 0.75 4.1699 0.75H13.3999ZM12.4019 18.75C12.9489 18.75 13.0849 18.654 13.1159 18.624C13.1409 18.6 13.2499 18.469 13.2499 17.9V17.25H3.2499C2.85208 17.25 2.47055 17.408 2.18924 17.6893C1.90794 17.9706 1.7499 18.3522 1.7499 18.75H12.4019ZM6.5299 5.97C6.46124 5.89631 6.37844 5.83721 6.28644 5.79622C6.19444 5.75523 6.09513 5.73319 5.99443 5.73141C5.89372 5.72963 5.7937 5.74816 5.70031 5.78588C5.60692 5.8236 5.52209 5.87974 5.45087 5.95096C5.37965 6.02218 5.3235 6.10701 5.28578 6.2004C5.24806 6.29379 5.22954 6.39382 5.23131 6.49452C5.23309 6.59523 5.25513 6.69454 5.29612 6.78654C5.33712 6.87854 5.39622 6.96134 5.46991 7.03L6.9399 8.5L5.46991 9.97C5.39622 10.0387 5.33712 10.1215 5.29612 10.2135C5.25513 10.3055 5.23309 10.4048 5.23131 10.5055C5.22954 10.6062 5.24806 10.7062 5.28578 10.7996C5.3235 10.893 5.37965 10.9778 5.45087 11.049C5.52209 11.1203 5.60692 11.1764 5.70031 11.2141C5.7937 11.2518 5.89372 11.2704 5.99443 11.2686C6.09513 11.2668 6.19444 11.2448 6.28644 11.2038C6.37844 11.1628 6.46124 11.1037 6.5299 11.03L7.99991 9.56L9.4699 11.03C9.53857 11.1037 9.62137 11.1628 9.71337 11.2038C9.80537 11.2448 9.90468 11.2668 10.0054 11.2686C10.1061 11.2704 10.2061 11.2518 10.2995 11.2141C10.3929 11.1764 10.4777 11.1203 10.5489 11.049C10.6202 10.9778 10.6763 10.893 10.714 10.7996C10.7517 10.7062 10.7703 10.6062 10.7685 10.5055C10.7667 10.4048 10.7447 10.3055 10.7037 10.2135C10.6627 10.1215 10.6036 10.0387 10.5299 9.97L9.05991 8.5L10.5299 7.03C10.6624 6.88783 10.7345 6.69978 10.7311 6.50548C10.7277 6.31118 10.6489 6.12579 10.5115 5.98838C10.3741 5.85097 10.1887 5.77225 9.99443 5.76883C9.80013 5.7654 9.61208 5.83752 9.4699 5.97L7.99991 7.44L6.5299 5.97Z" fill="#333333"/>
</svg>
