<svg width="37" height="37" viewBox="0 0 37 37" fill="none" xmlns="http://www.w3.org/2000/svg">
<path d="M7.34703 28.9062H33.5312V1.15625H7.27476C6.11317 1.15998 5.00021 1.62308 4.17884 2.44446C3.35746 3.26584 2.89436 4.37879 2.89062 5.54039V31.0923H2.89142C2.89142 31.1032 2.89062 31.114 2.89062 31.125C2.89062 33.6832 4.89831 35.844 7.27476 35.844H33.5312V33.5312H7.27476C6.19056 33.5312 5.20312 32.3843 5.20312 31.1248C5.20312 29.9223 6.18485 28.9062 7.34703 28.9062ZM26.0156 3.49281V15.9815L22.518 12.9109L19.0781 15.9635V3.49281H26.0156ZM16.7656 3.46875V19.0781H19.0522L22.5264 15.9953L26.0377 19.0781H28.3281V3.46875H31.2188V26.5937H9.83391L9.82812 3.46875H16.7656ZM7.27476 3.46875H7.51562L7.52112 26.5937H7.34674C6.59481 26.5939 5.85593 26.7903 5.20312 27.1634V5.55845C5.20136 5.00682 5.41847 4.477 5.80685 4.08524C6.19522 3.69348 6.72313 3.47177 7.27476 3.46875Z" fill="black"/>
</svg>
