<svg width="34" height="34" viewBox="0 0 34 34" fill="none" xmlns="http://www.w3.org/2000/svg">
<path d="M4.75 17H1.25L17 1.25L32.75 17H29.25M4.75 17V29.25C4.75 30.1783 5.11875 31.0685 5.77513 31.7249C6.4315 32.3813 7.32174 32.75 8.25 32.75H25.75C26.6783 32.75 27.5685 32.3813 28.2249 31.7249C28.8813 31.0685 29.25 30.1783 29.25 29.25V17" stroke="black" stroke-width="2" stroke-linecap="round" stroke-linejoin="round"/>
<path d="M11.75 32.75V22.25C11.75 21.3217 12.1187 20.4315 12.7751 19.7751C13.4315 19.1187 14.3217 18.75 15.25 18.75H18.75C19.6783 18.75 20.5685 19.1187 21.2249 19.7751C21.8813 20.4315 22.25 21.3217 22.25 22.25V32.75" stroke="black" stroke-width="2" stroke-linecap="round" stroke-linejoin="round"/>
</svg>
