<svg width="20" height="22" viewBox="0 0 20 22" fill="none" xmlns="http://www.w3.org/2000/svg">
<path fill-rule="evenodd" clip-rule="evenodd" d="M15.75 11.5833C16.0263 11.5833 16.2912 11.6931 16.4866 11.8884C16.6819 12.0838 16.7917 12.3487 16.7917 12.625V14.7083H18.875C19.1513 14.7083 19.4162 14.8181 19.6116 15.0134C19.8069 15.2088 19.9167 15.4737 19.9167 15.75C19.9167 16.0263 19.8069 16.2912 19.6116 16.4866C19.4162 16.6819 19.1513 16.7917 18.875 16.7917H16.7917V18.875C16.7917 19.1513 16.6819 19.4162 16.4866 19.6116C16.2912 19.8069 16.0263 19.9167 15.75 19.9167C15.4737 19.9167 15.2088 19.8069 15.0134 19.6116C14.8181 19.4162 14.7083 19.1513 14.7083 18.875V16.7917H12.625C12.3487 16.7917 12.0838 16.6819 11.8884 16.4866C11.6931 16.2912 11.5833 16.0263 11.5833 15.75C11.5833 15.4737 11.6931 15.2088 11.8884 15.0134C12.0838 14.8181 12.3487 14.7083 12.625 14.7083H14.7083V12.625C14.7083 12.3487 14.8181 12.0838 15.0134 11.8884C15.2088 11.6931 15.4737 11.5833 15.75 11.5833ZM13.6667 0.125C13.9429 0.125 14.2079 0.234747 14.4032 0.430097C14.5986 0.625447 14.7083 0.890399 14.7083 1.16667V2.20833H16.7917C17.3442 2.20833 17.8741 2.42783 18.2648 2.81853C18.6555 3.20923 18.875 3.73913 18.875 4.29167V8.45833C18.875 8.7346 18.7653 8.99955 18.5699 9.1949C18.3746 9.39025 18.1096 9.5 17.8333 9.5H2.20833V16.7917H8.45833C8.7346 16.7917 8.99955 16.9014 9.1949 17.0968C9.39025 17.2921 9.5 17.5571 9.5 17.8333C9.5 18.1096 9.39025 18.3746 9.1949 18.5699C8.99955 18.7653 8.7346 18.875 8.45833 18.875H2.20833C1.6558 18.875 1.12589 18.6555 0.735194 18.2648C0.344493 17.8741 0.125 17.3442 0.125 16.7917V4.29167C0.125 3.73913 0.344493 3.20923 0.735194 2.81853C1.12589 2.42783 1.6558 2.20833 2.20833 2.20833H4.29167V1.16667C4.29167 0.890399 4.40141 0.625447 4.59676 0.430097C4.79211 0.234747 5.05707 0.125 5.33333 0.125C5.6096 0.125 5.87455 0.234747 6.0699 0.430097C6.26525 0.625447 6.375 0.890399 6.375 1.16667V2.20833H12.625V1.16667C12.625 0.890399 12.7347 0.625447 12.9301 0.430097C13.1254 0.234747 13.3904 0.125 13.6667 0.125ZM16.7917 4.29167H2.20833V7.41667H16.7917V4.29167Z" fill="#333333"/>
</svg>
