<svg width="18" height="18" viewBox="0 0 19 21" fill="none" xmlns="http://www.w3.org/2000/svg">
<path d="M17.7495 3.65088H13.9999V2.90088C13.9992 2.30435 13.7619 1.73244 13.3401 1.31063C12.9183 0.888823 12.3464 0.651553 11.7499 0.650879H7.24988C6.65335 0.651553 6.08144 0.888823 5.65963 1.31063C5.23782 1.73244 5.00055 2.30435 4.99988 2.90088V3.65088H1.24951C1.0506 3.65088 0.859834 3.7299 0.719182 3.87055C0.578529 4.0112 0.499512 4.20197 0.499512 4.40088C0.499512 4.59979 0.578529 4.79056 0.719182 4.93121C0.859834 5.07186 1.0506 5.15088 1.24951 5.15088H1.99951V18.6509C1.99997 19.0486 2.15815 19.4298 2.43935 19.711C2.72056 19.9922 3.10183 20.1504 3.49951 20.1509H15.4995C15.8972 20.1504 16.2785 19.9922 16.5597 19.711C16.8409 19.4298 16.9991 19.0486 16.9995 18.6509V5.15088H17.7495C17.9484 5.15088 18.1392 5.07186 18.2798 4.93121C18.4205 4.79056 18.4995 4.59979 18.4995 4.40088C18.4995 4.20197 18.4205 4.0112 18.2798 3.87055C18.1392 3.7299 17.9484 3.65088 17.7495 3.65088ZM7.99988 14.9009C7.99988 15.0998 7.92086 15.2906 7.78021 15.4312C7.63956 15.5719 7.44879 15.6509 7.24988 15.6509C7.05097 15.6509 6.8602 15.5719 6.71955 15.4312C6.5789 15.2906 6.49988 15.0998 6.49988 14.9009V8.90088C6.49988 8.70197 6.5789 8.5112 6.71955 8.37055C6.8602 8.2299 7.05097 8.15088 7.24988 8.15088C7.44879 8.15088 7.63956 8.2299 7.78021 8.37055C7.92086 8.5112 7.99988 8.70197 7.99988 8.90088V14.9009ZM12.4999 14.9009C12.4999 15.0998 12.4209 15.2906 12.2802 15.4312C12.1396 15.5719 11.9488 15.6509 11.7499 15.6509C11.551 15.6509 11.3602 15.5719 11.2195 15.4312C11.0789 15.2906 10.9999 15.0998 10.9999 14.9009V8.90088C10.9999 8.70197 11.0789 8.5112 11.2195 8.37055C11.3602 8.2299 11.551 8.15088 11.7499 8.15088C11.9488 8.15088 12.1396 8.2299 12.2802 8.37055C12.4209 8.5112 12.4999 8.70197 12.4999 8.90088V14.9009ZM12.4999 3.65088H6.49988V2.90088C6.50011 2.70204 6.5792 2.5114 6.7198 2.3708C6.8604 2.2302 7.05104 2.15111 7.24988 2.15088H11.7499C11.9487 2.15111 12.1394 2.2302 12.28 2.3708C12.4206 2.5114 12.4997 2.70204 12.4999 2.90088V3.65088Z" fill="#FF0000"/>
</svg>
