<svg width="37" height="37" viewBox="0 0 37 37" fill="none" xmlns="http://www.w3.org/2000/svg">
<path d="M13.875 32.375H23.125M13.875 32.375V24.6667M13.875 32.375H5.55C5.30467 32.375 5.0694 32.2775 4.89593 32.1041C4.72246 31.9306 4.625 31.6953 4.625 31.45V25.5917C4.625 25.3463 4.72246 25.1111 4.89593 24.9376C5.0694 24.7641 5.30467 24.6667 5.55 24.6667H13.875M23.125 32.375V13.875M23.125 32.375H31.45C31.6953 32.375 31.9306 32.2775 32.1041 32.1041C32.2775 31.9306 32.375 31.6953 32.375 31.45V5.55C32.375 5.30467 32.2775 5.0694 32.1041 4.89593C31.9306 4.72246 31.6953 4.625 31.45 4.625H24.05C23.8047 4.625 23.5694 4.72246 23.3959 4.89593C23.2225 5.0694 23.125 5.30467 23.125 5.55V13.875M13.875 24.6667V14.8C13.875 14.5547 13.9725 14.3194 14.1459 14.1459C14.3194 13.9725 14.5547 13.875 14.8 13.875H23.125" stroke="#1E1E1E" stroke-width="1.5"/>
</svg>
