<svg width="37" height="37" viewBox="0 0 37 37" fill="none" xmlns="http://www.w3.org/2000/svg">
<path d="M18.9741 4.63867C18.8071 4.63866 18.642 4.67483 18.4903 4.74469C18.3386 4.81455 18.2039 4.91644 18.0953 5.04336L17.9797 5.12661C14.4994 4.10448 10.5519 4.89536 7.79775 7.50155C5.35344 9.81173 4.41919 13.0076 4.99269 15.9977L4.958 16.03L3.40631 17.4985C3.09017 17.7902 2.83786 18.1442 2.66529 18.5382C2.49272 18.9322 2.40363 19.3577 2.40363 19.7879C2.40363 20.218 2.49272 20.6435 2.66529 21.0375C2.83786 21.4315 3.09017 21.7855 3.40631 22.0772C4.19719 22.8288 5.28406 23.134 6.31313 22.993C6.46113 23.5318 6.75944 24.0429 7.20575 24.466C7.80931 25.0372 8.584 25.3494 9.37488 25.4049C9.43269 26.1519 9.76338 26.8849 10.3693 27.4561C10.9705 28.0273 11.7452 28.3395 12.5361 28.395C12.5939 29.1419 12.9246 29.875 13.5304 30.4462C14.1336 31.0036 14.9103 31.3362 15.73 31.388C16.5496 31.4398 17.362 31.2076 18.0306 30.7306L18.7937 31.4521C20.1349 32.724 22.3156 32.724 23.6592 31.4521C24.2604 30.8809 24.5934 30.1548 24.6536 29.4102C25.4398 29.3524 26.2076 29.0402 26.8088 28.4713C27.4101 27.9024 27.7431 27.174 27.8032 26.4294C28.5779 26.3669 29.3341 26.0547 29.9307 25.4928C30.3955 25.0511 30.7008 24.5123 30.8395 23.9457C31.857 24.0683 32.9184 23.7607 33.6978 23.0254C34.0139 22.7337 34.2662 22.3797 34.4388 21.9856C34.6113 21.5916 34.7004 21.1661 34.7004 20.736C34.7004 20.3058 34.6113 19.8803 34.4388 19.4863C34.2662 19.0923 34.0139 18.7383 33.6978 18.4466L32.3241 17.147L32.5854 16.1757C33.1925 13.9256 32.8858 11.5268 31.7321 9.50186C30.0324 6.49098 26.7418 4.64561 23.199 4.64561H20.8426L20.5234 4.63867H18.9741ZM29.0843 17.258L30.2082 18.368C30.2783 18.4362 30.3568 18.4953 30.4418 18.5437L32.0166 20.033C32.114 20.1218 32.1919 20.23 32.2452 20.3507C32.2984 20.4713 32.326 20.6018 32.326 20.7337C32.326 20.8656 32.2984 20.996 32.2452 21.1166C32.1919 21.2373 32.114 21.3455 32.0166 21.4344C31.8155 21.6213 31.5511 21.7252 31.2766 21.7252C31.002 21.7252 30.7376 21.6213 30.5366 21.4344L27.9003 18.9438C27.6717 18.7327 27.372 18.6154 27.0609 18.6154C26.7497 18.6154 26.45 18.7327 26.2214 18.9438L26.1937 18.9669C26.0844 19.0686 25.9973 19.1918 25.9377 19.3286C25.8782 19.4655 25.8474 19.6132 25.8474 19.7624C25.8474 19.9117 25.8782 20.0594 25.9377 20.1962C25.9973 20.3331 26.0844 20.4562 26.1937 20.5579L28.2495 22.5004C28.346 22.5898 28.4231 22.6982 28.4757 22.8188C28.5284 22.9394 28.5556 23.0695 28.5556 23.2011C28.5556 23.3327 28.5284 23.4628 28.4757 23.5834C28.4231 23.704 28.346 23.8124 28.2495 23.9018C28.0666 24.0728 27.8302 24.1755 27.5803 24.1923C27.3305 24.2092 27.0824 24.1392 26.8782 23.9943C26.6454 23.8299 26.3631 23.7507 26.0788 23.7701C25.7945 23.7895 25.5256 23.9062 25.3173 24.1007C25.1158 24.2882 24.9936 24.5456 24.9755 24.8202C24.9575 25.0949 25.045 25.3661 25.2201 25.5784C25.3751 25.7661 25.4519 26.0062 25.4347 26.249C25.4174 26.4918 25.3075 26.7186 25.1276 26.8826C24.9422 27.056 24.7019 27.1591 24.4485 27.1738C24.1951 27.1886 23.9444 27.1142 23.7401 26.9635C23.5089 26.794 23.226 26.7099 22.9397 26.7255C22.6534 26.7411 22.3814 26.8554 22.1699 27.0491C21.9652 27.2364 21.8404 27.4954 21.8214 27.7722C21.8025 28.0491 21.8909 28.3226 22.0682 28.536C22.3919 28.9292 22.3619 29.5004 21.978 29.8634C21.7731 30.0519 21.5049 30.1566 21.2264 30.1566C20.948 30.1566 20.6798 30.0519 20.4749 29.8634L19.7302 29.1604L19.9245 28.9777C20.2406 28.686 20.493 28.332 20.6655 27.938C20.8381 27.544 20.9272 27.1185 20.9272 26.6884C20.9272 26.2582 20.8381 25.8327 20.6655 25.4387C20.493 25.0447 20.2406 24.6907 19.9245 24.399C19.3337 23.8417 18.566 23.5095 17.7554 23.4601C17.6921 22.6761 17.3373 21.9442 16.761 21.4089C16.1711 20.8513 15.4043 20.5183 14.5942 20.4677C14.5309 19.6837 14.1761 18.9519 13.5998 18.4165C13.2142 18.0569 12.753 17.7881 12.2501 17.6297C11.7471 17.4712 11.2151 17.4272 10.693 17.5008C10.5336 16.939 10.2251 16.4308 9.80038 16.03C9.45985 15.7107 9.05912 15.4624 8.62158 15.2996C8.18404 15.1368 7.71845 15.0628 7.252 15.0819C7.1286 13.9788 7.26557 12.8622 7.65192 11.8216C8.03827 10.781 8.66323 9.84552 9.47663 9.09023C10.2734 8.34696 11.2135 7.77426 12.2395 7.40723C13.2654 7.0402 14.3555 6.88658 15.4429 6.9558L12.9107 8.78267C12.5221 9.05855 12.1943 9.41134 11.9478 9.81916C11.7012 10.227 11.5411 10.6811 11.4773 11.1534C11.4136 11.6257 11.4476 12.106 11.5772 12.5646C11.7068 13.0232 11.9293 13.4503 12.2308 13.8193C12.839 14.5644 13.7076 15.0505 14.6608 15.1793C15.6139 15.3081 16.5804 15.0699 17.3646 14.513L20.4795 12.2699H23.8095L29.0843 17.258ZM14.2635 10.6558L19.4042 6.95117H20.5258L20.8148 6.95811H23.1967C25.9532 6.95811 28.4507 8.39186 29.7179 10.6396C30.5343 12.0803 30.7771 13.7384 30.4163 15.3247L25.2987 10.2881C25.0826 10.0762 24.7921 9.95747 24.4894 9.95742H20.1026C19.8603 9.95734 19.6241 10.0334 19.4273 10.1748L16.0141 12.6376C15.71 12.8489 15.3379 12.9385 14.971 12.8889C14.6041 12.8392 14.2692 12.6538 14.0323 12.3694C13.9278 12.2448 13.8505 12.0998 13.8054 11.9437C13.7602 11.7876 13.7481 11.6237 13.7698 11.4626C13.7916 11.3016 13.8468 11.1468 13.9318 11.0083C14.0168 10.8697 14.1298 10.7505 14.2635 10.6581M16.7656 25.9877C16.967 25.8011 17.2315 25.6976 17.5061 25.698C17.7806 25.6984 18.0448 25.8027 18.2456 25.99C18.3431 26.0788 18.421 26.187 18.4742 26.3077C18.5275 26.4283 18.555 26.5588 18.555 26.6907C18.555 26.8226 18.5275 26.953 18.4742 27.0737C18.421 27.1943 18.3431 27.3025 18.2456 27.3914L16.6916 28.8598C16.4905 29.0467 16.2262 29.1506 15.9516 29.1506C15.6771 29.1506 15.4127 29.0467 15.2116 28.8598C15.1142 28.7709 15.0363 28.6627 14.983 28.5421C14.9297 28.4214 14.9022 28.291 14.9022 28.1591C14.9022 28.0272 14.9297 27.8968 14.983 27.7761C15.0363 27.6555 15.1142 27.5473 15.2116 27.4584L16.7656 25.9877ZM15.0868 24.3967L13.5304 25.8697C13.3292 26.0573 13.0644 26.1616 12.7893 26.1616C12.5142 26.1616 12.2493 26.0573 12.0481 25.8697C11.9528 25.7827 11.8763 25.6771 11.8233 25.5595C11.7702 25.4419 11.7417 25.3146 11.7396 25.1856C11.7374 25.0566 11.7616 24.9284 11.8107 24.8091C11.8598 24.6897 11.9327 24.5817 12.025 24.4915L12.0481 24.4684L13.5998 22.9999L13.6229 22.9768C13.8257 22.7989 14.0873 22.7028 14.357 22.707C14.6267 22.7113 14.8851 22.8157 15.0821 22.9999C15.1791 23.0884 15.2567 23.1961 15.3099 23.3161C15.3632 23.4362 15.3909 23.566 15.3913 23.6973C15.3917 23.8286 15.3649 23.9586 15.3125 24.079C15.26 24.1994 15.1832 24.3075 15.0868 24.3967ZM11.9186 21.4112L10.3693 22.8774L10.3438 22.9005C10.1412 23.0777 9.88007 23.1735 9.61093 23.1692C9.34178 23.1649 9.0838 23.0609 8.88694 22.8774C8.78947 22.7885 8.71161 22.6803 8.65834 22.5597C8.60506 22.439 8.57755 22.3086 8.57755 22.1767C8.57755 22.0448 8.60506 21.9143 8.65834 21.7937C8.71161 21.673 8.78947 21.5648 8.88694 21.476L10.4363 20.0099C10.6376 19.8216 10.903 19.7169 11.1786 19.7169C11.4543 19.7169 11.7196 19.8216 11.9209 20.0099C12.0162 20.0969 12.0927 20.2025 12.1458 20.3201C12.1988 20.4377 12.2273 20.565 12.2295 20.694C12.2317 20.823 12.2075 20.9511 12.1584 21.0705C12.1093 21.1899 12.0364 21.2979 11.9441 21.3881L11.9186 21.4112ZM8.1215 19.0201L6.56981 20.4885C6.36873 20.6755 6.10436 20.7794 5.82981 20.7794C5.55527 20.7794 5.2909 20.6755 5.08981 20.4885C4.99234 20.3997 4.91448 20.2915 4.86121 20.1708C4.80794 20.0502 4.78042 19.9197 4.78042 19.7879C4.78042 19.656 4.80794 19.5255 4.86121 19.4049C4.91448 19.2842 4.99234 19.176 5.08981 19.0872L6.63919 17.6187C6.8404 17.4311 7.10525 17.3268 7.38034 17.3268C7.65544 17.3268 7.92029 17.4311 8.1215 17.6187C8.21897 17.7076 8.29683 17.8158 8.3501 17.9364C8.40338 18.0571 8.43089 18.1875 8.43089 18.3194C8.43089 18.4513 8.40338 18.5817 8.3501 18.7024C8.29683 18.8231 8.21897 18.9313 8.1215 19.0201Z" fill="black"/>
</svg>
